PathFileType	4	(X/Y/Z)	C:/Users/opensim2020/Desktop/walking_exp_matlab/subject01_walking10_straight_03.trc																																																																																																																															
DataRate	CameraRate	NumFrames	NumMarkers	Units	OrigDataRate	OrigDataStartFrame	OrigNumFrames																																																																																																																											
100	100	4	43	mm	100	2968	317																																																																																																																											
Frame#	Time	LFHD			RFHD			LBHD			RBHD			C7			T10			CLAV			STRN			RBAK			LSHO			LUPA			LELB			LFRM			LWRA			LWRB			LFIN			RSHO			RUPA			RELB			RFRM			RWRA			RWRB			RFIN			LASI			RASI			LPSI			RPSI			LTHI			LKNE			LTIB			LANK			LHEE			LTOE			RTHI			RKNE			RTIB			RANK			RHEE			RTOE			*39			*40			*41			*42		
		X1	Y1	Z1	X2	Y2	Z2	X3	Y3	Z3	X4	Y4	Z4	X5	Y5	Z5	X6	Y6	Z6	X7	Y7	Z7	X8	Y8	Z8	X9	Y9	Z9	X10	Y10	Z10	X11	Y11	Z11	X12	Y12	Z12	X13	Y13	Z13	X14	Y14	Z14	X15	Y15	Z15	X16	Y16	Z16	X17	Y17	Z17	X18	Y18	Z18	X19	Y19	Z19	X20	Y20	Z20	X21	Y21	Z21	X22	Y22	Z22	X23	Y23	Z23	X24	Y24	Z24	X25	Y25	Z25	X26	Y26	Z26	X27	Y27	Z27	X28	Y28	Z28	X29	Y29	Z29	X30	Y30	Z30	X31	Y31	Z31	X32	Y32	Z32	X33	Y33	Z33	X34	Y34	Z34	X35	Y35	Z35	X36	Y36	Z36	X37	Y37	Z37	X38	Y38	Z38	X39	Y39	Z39	X40	Y40	Z40	X41	Y41	Z41	X42	Y42	Z42	X43	Y43	Z43
																																																																																																																																		
119	1.18	-149.90396	1670.68469	1401.09155	-121.54642	1681.74548	1510.60657	-253.44138	1605.66284	1426.86438	-225.73119	1615.82825	1543.42896	-257.08887	1419.52405	1462.11975	-277.19943	1127.27161	1470.97864	-109.12375	1362.15723	1455.58069	-57.62617	1208.75952	1449.95032	-296.81662	1224.62109	1542.29724	-176.01781	1387.29419	1296.70447	-207.41702	1200.58105	1215.06946	-224.00984	1052.00134	1219.50769	-197.49673	942.73761	1192.94568	-130.4864	819.94562	1208.22656	-186.37639	820.58618	1186.23438	-145.6058	744.89679	1177.45166	-166.60153	1386.31079	1610.11243	-208.68552	1184.57104	1712.97241	-198.64746	1060.22644	1718.79736	-156.01576	947.53003	1750.82153	-57.30981	847.01477	1744.50024	-106.71334	836.45038	1771.93335	-56.06759	766.87439	1776.44666	-104.11594	928.02728	1360.63831	-103.51299	921.32422	1576.58362	-290.72922	936.62109	1410.3999	-288.3335	939.57385	1555.34888	-68.247	607.73547	1301.43494	-47.37752	475.82178	1320.21655	-74.38766	287.93515	1303.98132	-76.96838	69.02296	1352.76636	-120.82925	38.85793	1404.69006	70.27705	35.2579	1345.82959	-184.07178	590.45374	1639.19165	-200.31001	429.66974	1626.41565	-335.80688	313.47574	1638.11536	-466.23672	148.96695	1605.93066	-526.5802	143.07904	1556.21912	-379.78128	34.33979	1600.51587	-142.75453	1711.97229	1490.29749	1973.11243	1023.54865	-3101.95679	2012.50879	1022.04846	-3140.7019	NaN	NaN	NaN
120	1.19	-142.92017	1671.34863	1398.59729	-114.59593	1682.35217	1508.17285	-246.51752	1606.45605	1424.271	-218.86339	1616.47437	1540.85486	-250.24205	1420.2002	1459.48584	-270.21884	1127.8916	1468.06189	-102.23451	1362.88147	1452.94946	-50.66864	1209.50854	1447.30872	-289.79965	1225.41235	1539.73511	-168.81126	1388.17908	1294.18701	-198.66028	1201.4281	1212.02844	-214.16954	1052.72864	1216.27502	-186.4686	943.66223	1189.66248	-118.26449	821.52344	1205.27698	-173.9218	821.67847	1182.90027	-132.28978	746.3844	1174.45508	-159.57535	1387.13391	1607.42969	-202.44743	1185.70068	1710.45789	-193.43759	1061.32825	1716.04553	-151.87396	948.25623	1748.33301	-53.80252	847.08276	1742.70959	-103.64725	836.78687	1769.71484	-53.34738	766.5354	1774.00659	-96.84447	928.71863	1357.60156	-96.55503	922.2818	1573.71655	-283.55121	937.18274	1407.53418	-281.14978	939.66437	1552.43286	-64.49899	607.05005	1299.04846	-43.68527	475.22614	1318.35229	-72.30039	287.53131	1303.09399	-76.7804	68.89173	1352.74573	-120.8116	38.88254	1404.6604	70.55656	34.89487	1345.94373	-171.4772	589.89154	1637.41785	-185.23598	429.53754	1625.23145	-322.97626	316.12643	1636.37683	-456.87628	154.6862	1604.45178	-516.8385	151.50618	1553.9248	-377.84109	34.79123	1599.1377	-135.67409	1712.65747	1487.84827	1973.06348	1023.37024	-3102.08545	2012.52209	1022.0047	-3140.72803	NaN	NaN	NaN
121	1.2	-135.76237	1671.99463	1396.23755	-107.64993	1682.8645	1505.77722	-239.48534	1607.16187	1421.69031	-212.02226	1617.09973	1538.31018	-243.4164	1420.75781	1456.87512	-263.32791	1128.47876	1465.11694	-95.35851	1363.526	1450.49194	-43.79678	1210.17542	1444.84326	-283.01242	1226.15686	1537.14014	-161.63687	1388.98962	1291.71313	-189.82217	1202.27258	1208.96301	-204.049	1053.50952	1212.93457	-175.46475	944.71033	1186.40503	-105.88931	823.11194	1202.25525	-161.31277	822.77179	1179.50391	-118.70049	747.89978	1171.32153	-152.71434	1387.89246	1604.81665	-196.33386	1186.77271	1707.99121	-188.22464	1062.38171	1713.4552	-147.75609	948.95038	1745.92322	-50.23249	847.09631	1740.98328	-100.43381	837.02014	1767.50891	-50.68939	766.15631	1771.625	-89.89569	929.24976	1354.92041	-89.78424	923.15533	1571.01099	-276.56573	937.70764	1404.6748	-274.7283	940.00958	1549.79004	-60.90294	606.29022	1296.7113	-40.4226	474.58984	1316.46277	-70.38014	287.12387	1302.13135	-76.15189	68.62147	1352.82288	-120.87414	38.91843	1404.60034	70.61632	34.86028	1345.70581	-158.52371	589.55811	1636.0083	-170.1913	429.43982	1623.6582	-309.89951	318.84909	1634.49231	-447.06699	160.3398	1602.7345	-506.55646	159.68582	1551.60681	-375.2897	35.92018	1598.04919	-128.64182	1713.23767	1485.49207	1973.21252	1023.43719	-3101.88428	2012.51843	1022.04553	-3140.63379	NaN	NaN	NaN
122	1.21	-128.77492	1672.53125	1393.89441	-100.64221	1683.3457	1503.50818	-232.57095	1607.85608	1419.23901	-205.17189	1617.67456	1535.86267	-236.57538	1421.27991	1454.25037	-256.58344	1129.05261	1462.17871	-88.5294	1364.13086	1448.13379	-37.03003	1210.71692	1442.43762	-276.28943	1226.78101	1534.40942	-154.41168	1389.71021	1289.31677	-180.90573	1203.03223	1205.98291	-194.13348	1053.89709	1209.50305	-164.02895	945.45691	1182.88098	-93.40836	824.81964	1200.026	-148.53922	823.85895	1176.01819	-105.02046	749.4389	1168.2428	-146.0528	1388.5116	1602.29358	-190.32675	1187.72681	1705.55371	-183.06868	1063.34351	1710.9834	-143.59607	949.63336	1743.651	-46.669	847.07587	1739.33557	-97.08321	837.23694	1765.27881	-47.90016	765.8623	1769.45801	-83.13239	929.60443	1352.58716	-83.10611	923.97266	1568.52026	-269.70245	938.20355	1401.90027	-268.00256	939.78571	1546.99011	-57.2433	605.61621	1294.45935	-37.43597	473.96368	1314.57959	-68.43063	286.72498	1301.08289	-75.94975	68.46381	1352.64197	-120.9043	38.95505	1404.53369	70.77644	34.65451	1345.76575	-145.68828	589.34192	1634.05554	-154.99384	429.53488	1621.9137	-296.40289	321.62695	1632.64331	-436.81717	166.23123	1601.09119	-496.05182	167.82288	1549.30652	-371.71378	38.41483	1596.85168	-121.67834	1713.71057	1483.18262	1972.93018	1023.77484	-3101.96411	2012.46765	1021.92084	-3140.62793	NaN	NaN	NaN
